<svg xmlns="http://www.w3.org/2000/svg" width="29.673" height="24" viewBox="0 0 29.673 24"><defs><style>.a{fill:#09bb07;}</style></defs><path class="a" d="M48.529,135.262c.338,0,.675.031,1.011.061-.9-4.191-5.434-7.323-10.6-7.323-5.771.02-10.5,3.921-10.5,8.874,0,2.855,1.576,5.211,4.195,7.034l-1.057,3.128,3.676-1.822a18.2,18.2,0,0,0,3.674.515c.338,0,.658-.015.979-.044a7.952,7.952,0,0,1-.321-2.189c.015-4.541,3.95-8.232,8.941-8.232l0,0ZM42.88,132.44a1.306,1.306,0,1,1,0,2.613,1.329,1.329,0,1,1,0-2.613Zm-7.35,2.613a1.329,1.329,0,1,1,0-2.613,1.306,1.306,0,1,1,0,2.613Zm22.587,8.335c0-4.162-4.195-7.564-8.928-7.564-4.991,0-8.926,3.4-8.926,7.564s3.935,7.566,8.926,7.566a13.461,13.461,0,0,0,3.155-.517L55.222,152l-.8-2.6C56.54,147.809,58.117,145.726,58.117,143.387ZM46.3,142.081a1.132,1.132,0,0,1-1.057-1.049,1.148,1.148,0,0,1,1.057-1.049,1.076,1.076,0,1,1,0,2.1Zm5.773,0a1.117,1.117,0,0,1-1.042-1.049,1.13,1.13,0,0,1,1.042-1.049,1.076,1.076,0,1,1,0,2.1Z" transform="translate(-28.444 -128)"/></svg>